<?xml version="1.0" encoding="iso-8859-1"?>
<!-- Uploaded to: SVG Repo, www.svgrepo.com, Generator: SVG Repo Mixer Tools -->
<svg version="1.1" id="Layer_1" xmlns="http://www.w3.org/2000/svg" xmlns:xlink="http://www.w3.org/1999/xlink" 
	 viewBox="0 0 512 512" xml:space="preserve">
<path style="fill:#81E3E2;" d="M369.236,112.527v61.89l-22.505,22.505l-22.505-22.505v-61.89c0-37.224-30.292-67.516-67.516-67.516
	s-67.516,30.292-67.516,67.516v61.89l-22.506,22.505l-22.505-22.505v-61.89C144.181,50.379,194.56,0,256.709,0
	S369.236,50.379,369.236,112.527z"/>
<g>
	<rect x="324.225" y="174.418" style="fill:#42C8C6;" width="45.011" height="56.264"/>
	<rect x="144.181" y="174.418" style="fill:#42C8C6;" width="45.011" height="56.264"/>
</g>
<path style="fill:#81E3E2;" d="M391.033,208.176h-33.758V512h33.758c18.567,0,33.758-15.191,33.758-33.758V241.934
	C424.791,223.367,409.6,208.176,391.033,208.176z"/>
<path style="fill:#ABECEC;" d="M391.033,241.934v236.308c0,18.567-15.191,33.758-33.758,33.758H120.967
	c-18.567,0-33.758-15.191-33.758-33.758V241.934c0-18.567,15.191-33.758,33.758-33.758h236.308
	C375.842,208.176,391.033,223.367,391.033,241.934z"/>
<path style="fill:#02ACAB;" d="M289.764,337.582c0-18.645-15.114-33.758-33.758-33.758s-33.758,15.114-33.758,33.758
	c0,12.493,6.792,23.393,16.879,29.231v49.538h33.758v-49.538C282.972,360.976,289.764,350.075,289.764,337.582z"/>
<g>
	<circle style="fill:#81E3E2;" cx="132.22" cy="461.363" r="8.44"/>
	<circle style="fill:#81E3E2;" cx="165.978" cy="427.604" r="8.44"/>
</g>
</svg>